<svg version="1.0" xmlns="http://www.w3.org/2000/svg" viewBox="63 99 213 49" color-interpolation-filters="sRGB" ><g xmlns="http://www.w3.org/2000/svg" fill="#333" class="iconblsvg-g iconsvg"><g class="tp-name"><path d="M72.613 125.215q-1.54 0-2.87-.62-1.32-.62-2.16-1.79-.33-.49-.33-.95 0-.67.53-1.13.53-.46 1.04-.46.41 0 .8.24.39.24.72.57.54.49 1.07.69.53.2 1.2.2.81 0 1.52-.4.7-.41 1.13-1.09.44-.67.44-1.46v-11.37q0-.7.51-1.17.52-.48 1.19-.48.76 0 1.22.48.46.47.46 1.17v11.37q0 1.65-.86 3.06-.87 1.41-2.33 2.27-1.46.87-3.28.87Zm24.17-7.5q0 2.22-.98 3.91-.99 1.7-2.66 2.64-1.66.95-3.72.95-2.06 0-3.72-.95-1.67-.94-2.65-2.64-.99-1.69-.99-3.91t.99-3.91q.98-1.69 2.65-2.65 1.66-.96 3.72-.96 2.06 0 3.72.96 1.67.96 2.66 2.65.98 1.69.98 3.91Zm-3.24 0q0-1.38-.56-2.39-.55-1.02-1.49-1.59-.93-.56-2.07-.56-1.14 0-2.07.56-.93.57-1.49 1.59-.55 1.01-.55 2.39 0 1.36.55 2.37.56 1.02 1.49 1.58.93.57 2.07.57 1.14 0 2.07-.57.94-.56 1.49-1.58.56-1.01.56-2.37Zm9.01-5.6v11.18q0 .7-.46 1.18-.46.47-1.17.47-.7 0-1.16-.47-.46-.48-.46-1.18v-11.18q0-.7.46-1.18.46-.47 1.16-.47.71 0 1.17.47.46.48.46 1.18Zm-1.65-3.41q-.92 0-1.3-.3t-.38-1.05v-.52q0-.78.42-1.07.42-.28 1.28-.28.95 0 1.33.3.38.29.38 1.05v.52q0 .78-.41 1.07-.4.28-1.32.28Zm12.72 1.49q2 0 3.04.84 1.05.84 1.44 2.23.39 1.39.39 3.1v6.93q0 .7-.46 1.18-.46.47-1.16.47-.71 0-1.17-.47-.46-.48-.46-1.18v-6.93q0-.89-.23-1.61-.23-.72-.82-1.15-.6-.43-1.71-.43-1.08 0-1.82.43-.75.43-1.14 1.15-.39.72-.39 1.61v6.93q0 .7-.46 1.18-.46.47-1.17.47-.7 0-1.16-.47-.46-.48-.46-1.18v-11.18q0-.7.46-1.18.46-.47 1.16-.47.71 0 1.17.47.46.48.46 1.18v1.16l-.41-.08q.24-.46.7-.99.46-.52 1.09-.98.62-.46 1.4-.75.79-.28 1.71-.28Zm8.55.54h6.42q.65 0 1.08.43.43.44.43 1.09 0 .62-.43 1.04-.43.42-1.08.42h-6.42q-.65 0-1.08-.44-.43-.43-.43-1.08 0-.62.43-1.04.43-.42 1.08-.42Zm2.9-3.38q.7 0 1.15.47.45.47.45 1.18v12.04q0 .38.15.62.14.25.4.36.26.1.56.1.32 0 .59-.12.27-.12.62-.12.38 0 .69.35.32.36.32.98 0 .76-.83 1.24-.83.49-1.77.49-.57 0-1.26-.09-.69-.1-1.3-.46-.61-.37-1.02-1.13-.4-.76-.4-2.08v-12.18q0-.71.47-1.18.48-.47 1.18-.47Z" data-gra="path-name"/><g transform="translate(133.103 103.336)" class="imagesvg"><path class="image-rect" fill="none" d="M0 0h25.803v29.172H0z"/><svg width="25.803" height="29.172" class="image-svg-svg primary" style="overflow:visible"><svg xmlns="http://www.w3.org/2000/svg" viewBox="0.003 -0.005 37.542 42.443"><path d="M19.14 10.5a7.32 7.32 0 0 1 6.06-3.75h7.61c-.61 1.59-1.64 3-2.36 4.51-.79 1.3-1.61 2.56-2.34 3.9q-4.87 8.4-9.73 16.84a7.16 7.16 0 0 1-6.1 3.7c-2.53.06-5.06 0-7.59 0 .72-1.55 1.68-3 2.44-4.5.79-1.28 1.58-2.56 2.3-3.89 3.27-5.59 6.48-11.2 9.71-16.81z" fill="#2AE587"/><path d="M8.54 2a4.08 4.08 0 0 1 3.71-2c5.43 0 10.87 0 16.3.05 2.4.24 3.36 2.7 4.39 4.53H25.2a9.12 9.12 0 0 0-5.65 2.16c-1.84 1.49-2.77 3.72-4 5.7-1.82 3.09-3.54 6.24-5.42 9.29l-2.56-1.16c.57 2.26 1.26 4.48 1.86 6.73-.72 1.33-1.51 2.61-2.3 3.89-2.21-3.61-4.25-7.32-6.4-11a4.12 4.12 0 0 1-.18-4.39Q4.53 8.91 8.54 2z" fill="#B2E292"/><path d="M28.11 15.14c.73-1.34 1.55-2.6 2.34-3.9 2.21 3.6 4.22 7.31 6.37 10.94a4.27 4.27 0 0 1 .16 4.5q-3.91 6.8-7.83 13.58a4.18 4.18 0 0 1-3.93 2.17H9.27c-2.54-.07-3.59-2.66-4.65-4.55 3-.1 5.93.12 8.88-.12a9.57 9.57 0 0 0 6.6-4.49c2.43-4.19 4.84-8.39 7.27-12.57.85.4 1.72.77 2.61 1.1-.59-2.25-1.2-4.47-1.87-6.66z" fill="#32AF26"/></svg></svg></g><path d="M162.447 105.995h10.2q.22 0 .38.17.16.16.16.37 0 .25-.16.4-.16.15-.38.15h-9.88l.27-.46v8.39l-.32-.38h8.71q.22 0 .38.16.17.16.17.38 0 .24-.17.39-.16.15-.38.15h-8.66l.27-.3v8.58l-.1-.13h9.71q.22 0 .38.16t.16.38q0 .24-.16.39-.16.15-.38.15h-10.2q-.22 0-.38-.16t-.16-.38v-17.87q0-.21.16-.37.16-.17.38-.17Zm13.75 5.15q.27 0 .43.24l9.77 12.8q.11.14.11.33 0 .21-.15.38-.15.16-.36.16-.25 0-.46-.25l-9.8-12.77q-.11-.14-.11-.33 0-.24.18-.4.17-.16.39-.16Zm0 13.91q-.19 0-.35-.12-.17-.13-.17-.4 0-.19.11-.32l4.74-6.15.65.84-4.55 5.93q-.16.22-.43.22Zm9.8-13.91q.27 0 .39.13.12.14.12.33 0 .08-.04.17-.04.1-.09.18l-4.74 6.33-.57-.95 4.47-5.95q.21-.24.46-.24Zm10.15.13q1.81 0 3.22.89 1.41.9 2.23 2.45.83 1.56.83 3.56 0 1.98-.83 3.55-.82 1.57-2.25 2.48-1.42.9-3.2.9-.9 0-1.72-.25-.83-.26-1.53-.74-.7-.47-1.29-1.17-.58-.71-1.01-1.6l.35-.38v8.85q0 .22-.15.38t-.39.16q-.22 0-.38-.16t-.16-.38v-18q0-.21.15-.38.15-.16.39-.16.24 0 .39.16.15.17.15.38v3.47l-.35-.19q.38-1 .95-1.73.56-.74 1.3-1.2.73-.46 1.57-.67.83-.22 1.73-.22Zm-.06 1.03q-1.54 0-2.72.76-1.17.76-1.85 2.07-.68 1.31-.68 3.04 0 1.71.68 3.05.68 1.34 1.85 2.1 1.18.75 2.72.75 1.52 0 2.7-.75 1.17-.76 1.86-2.1.69-1.34.69-3.05 0-1.7-.69-3.03-.69-1.32-1.86-2.08-1.18-.76-2.7-.76Zm15.86 12.91q-2.03 0-3.58-.87-1.56-.86-2.45-2.45-.89-1.58-.89-3.72 0-2.27.88-3.87.87-1.59 2.27-2.45 1.39-.85 2.96-.85 1.14 0 2.22.37 1.09.36 1.94 1.13.85.77 1.38 1.92.53 1.15.58 2.75 0 .22-.16.39-.16.18-.38.18h-11.04l-.17-1.03h10.91l-.27.25v-.49q-.13-1.44-.91-2.41-.77-.98-1.85-1.48t-2.25-.5q-.81 0-1.7.37-.9.36-1.65 1.11-.76.74-1.24 1.88-.47 1.14-.47 2.65 0 1.65.66 3.03.67 1.38 1.98 2.22 1.31.84 3.23.84.93 0 1.74-.31.81-.31 1.46-.82.65-.52 1.05-1.11.22-.25.46-.25.19 0 .33.15.13.15.13.34 0 .19-.1.32-.84 1.09-2.16 1.9-1.31.81-2.91.81Zm15-14.21q1.71 0 2.77.68 1.07.67 1.57 1.84.51 1.16.51 2.6v8.28q0 .22-.17.38-.16.16-.38.16-.24 0-.39-.16-.15-.16-.15-.38v-8.18q0-1.16-.39-2.11-.39-.94-1.24-1.51-.86-.57-2.24-.57-1.19 0-2.33.57-1.13.57-1.88 1.51-.74.95-.74 2.11v8.18q0 .22-.16.38-.17.16-.38.16-.25 0-.4-.16-.14-.16-.14-.38v-12.43q0-.21.16-.37.16-.17.38-.17.24 0 .39.17.15.16.15.37v2.66l-.68 1.3q0-.98.52-1.87.51-.89 1.35-1.58.84-.69 1.85-1.09 1.02-.39 2.02-.39Zm8.58 11.77q-.19-.32-.18-.52.02-.21.21-.34.13-.14.36-.12.23.01.4.2.7 1 1.8 1.62 1.09.63 2.58.63.89 0 1.72-.3t1.35-.89q.53-.6.53-1.47 0-.92-.51-1.47-.52-.56-1.33-.88-.81-.33-1.71-.54-.94-.25-1.8-.56-.85-.31-1.5-.78-.65-.48-1.03-1.13-.37-.65-.37-1.54 0-1.05.56-1.89.57-.84 1.6-1.32 1.03-.47 2.38-.47.65 0 1.38.16.73.16 1.46.56.74.39 1.36 1.09.21.17.2.4-.01.23-.2.42-.16.1-.35.1-.19 0-.33-.16-.7-.78-1.64-1.16-.93-.38-1.99-.38-.89 0-1.66.3-.77.29-1.26.88-.49.58-.49 1.47.06.84.59 1.38.52.54 1.4.9.88.35 1.99.64.9.22 1.67.51.77.28 1.35.71.58.44.92 1.09.34.65.34 1.62 0 1.14-.61 1.96-.61.83-1.68 1.27-1.07.45-2.45.45-1.41 0-2.7-.57-1.3-.57-2.36-1.87Zm19.33 2.44q-2.03 0-3.59-.87-1.56-.86-2.45-2.45-.89-1.58-.89-3.72 0-2.27.88-3.87.88-1.59 2.27-2.45 1.4-.85 2.97-.85 1.13 0 2.21.37 1.09.36 1.94 1.13.85.77 1.38 1.92.53 1.15.58 2.75 0 .22-.16.39-.16.18-.38.18h-11.04l-.16-1.03h10.9l-.27.25v-.49q-.13-1.44-.9-2.41-.78-.98-1.86-1.48t-2.24-.5q-.82 0-1.71.37-.89.36-1.65 1.11-.76.74-1.23 1.88-.48 1.14-.48 2.65 0 1.65.67 3.03.66 1.38 1.97 2.22 1.32.84 3.24.84.92 0 1.73-.31.81-.31 1.46-.82.65-.52 1.06-1.11.21-.25.46-.25.19 0 .32.15.14.15.14.34 0 .19-.11.32-.84 1.09-2.15 1.9-1.32.81-2.91.81Zm8.09-2.44q-.19-.32-.18-.52.02-.21.21-.34.13-.14.36-.12.23.01.4.2.7 1 1.8 1.62 1.09.63 2.58.63.89 0 1.72-.3.82-.3 1.35-.89.53-.6.53-1.47 0-.92-.51-1.47-.52-.56-1.33-.88-.81-.33-1.71-.54-.94-.25-1.8-.56-.85-.31-1.5-.78-.65-.48-1.03-1.13-.38-.65-.38-1.54 0-1.05.57-1.89.57-.84 1.6-1.32 1.03-.47 2.38-.47.65 0 1.38.16.73.16 1.46.56.73.39 1.36 1.09.21.17.2.4-.01.23-.2.42-.16.1-.35.1-.19 0-.33-.16-.7-.78-1.64-1.16-.93-.38-1.99-.38-.89 0-1.66.3-.77.29-1.26.88-.49.58-.49 1.47.06.84.59 1.38.52.54 1.4.9.88.35 1.99.64.9.22 1.67.51.77.28 1.35.71.58.44.92 1.09.34.65.34 1.62 0 1.14-.61 1.96-.61.83-1.68 1.27-1.07.45-2.45.45-1.41 0-2.7-.57-1.3-.57-2.36-1.87Z" data-gra="path-name-1"/></g><path d="M149.374 139.494v7.03h1.01v-7.03h2.38v-.84h-5.76v.84Zm5.8 2.89v-2.93h1.32c.61 0 1.09.11 1.41.31.33.21.5.58.5 1.1 0 .51-.17.89-.5 1.14-.32.25-.8.38-1.41.38Zm3.32 4.14h1.13l-1.99-3.43c.53-.14.96-.39 1.28-.76.32-.37.48-.86.48-1.47 0-.41-.07-.76-.2-1.04-.14-.28-.33-.5-.57-.68-.25-.18-.54-.3-.88-.38-.34-.07-.71-.11-1.11-.11h-2.46v7.87h1v-3.32h1.43Zm5.88-3.2h-2.36l.37-1.2c.14-.44.28-.88.41-1.32.13-.43.25-.88.37-1.34h.05c.13.46.25.91.38 1.34.13.44.27.88.41 1.32Zm.25.8.75 2.4h1.07l-2.67-7.87h-1.13l-2.66 7.87h1.02l.76-2.4Zm2.36-1.54c0 .64.08 1.22.25 1.73.18.5.42.93.72 1.28.31.35.68.61 1.1.8.42.18.87.27 1.37.27.5 0 .95-.1 1.34-.3.4-.2.75-.48 1.06-.84l-.56-.61c-.26.28-.53.5-.81.65-.29.15-.62.23-1.01.23-.37 0-.71-.08-1.01-.23-.3-.15-.55-.37-.76-.65-.21-.28-.37-.62-.49-1.01-.11-.4-.17-.84-.17-1.34 0-.49.06-.93.18-1.32s.29-.73.5-1c.22-.28.48-.49.78-.64.31-.15.65-.22 1.02-.22.34 0 .63.07.88.2.26.13.49.31.69.53l.57-.63c-.23-.26-.53-.49-.89-.68-.36-.2-.78-.3-1.26-.3-.5 0-.97.1-1.4.29-.43.18-.8.45-1.11.81-.31.35-.55.78-.73 1.28-.18.5-.26 1.07-.26 1.7Zm7.3-3.93v7.87h1v-2.5l1.36-1.59 2.35 4.09h1.11l-2.84-4.87 2.46-3h-1.13l-3.27 3.95h-.04v-3.95Zm6.95 0v7.87h4.66v-.85h-3.66v-2.86h2.99v-.85h-2.99v-2.47h3.54v-.84Zm7.32 3.73v-2.93h1.32c.62 0 1.09.11 1.42.31.33.21.49.58.49 1.1 0 .51-.16.89-.49 1.14-.33.25-.8.38-1.42.38Zm3.33 4.14h1.12l-1.99-3.43c.54-.14.97-.39 1.29-.76.32-.37.48-.86.48-1.47 0-.41-.07-.76-.21-1.04-.13-.28-.32-.5-.57-.68-.24-.18-.53-.3-.87-.38-.34-.07-.71-.11-1.11-.11h-2.46v7.87h.99v-3.32h1.43Z" data-gra="path-slogan" class="tp-slogan iconsvg-slogansvg"/></g></svg>
